<svg width="22" height="24" viewBox="0 0 22 24" fill="none" xmlns="http://www.w3.org/2000/svg">
<path d="M2.58 21.196H16.839L16.158 18.991L17.787 20.389L19.28 21.727L22 24V2.475C21.932 1.137 20.78 0 19.352 0L2.585 0.003C1.158 0.003 0 1.142 0 2.48V18.72C0 20.131 1.156 21.196 2.58 21.196ZM13.128 5.683L13.095 5.695L13.107 5.683H13.128ZM5.497 6.952C7.33 5.618 9.029 5.682 9.029 5.682L9.166 5.817C6.923 6.352 5.906 7.354 5.906 7.354C5.906 7.354 6.178 7.221 6.653 7.018C9.674 5.83 12.973 5.916 16.027 7.42C16.027 7.42 15.008 6.483 12.903 5.883L13.089 5.7C13.38 5.701 14.92 5.755 16.568 6.96C16.568 6.96 18.412 10.11 18.412 13.98C18.351 13.906 17.268 15.646 14.481 15.706C14.481 15.706 14.009 15.172 13.673 14.706C15.303 14.238 15.913 13.302 15.913 13.302C15.378 13.639 14.89 13.839 14.494 14.039C13.885 14.307 13.275 14.439 12.666 14.574C9.782 15.042 8.163 14.259 6.633 13.638L6.11 13.372C6.11 13.372 6.719 14.308 8.284 14.776C7.873 15.245 7.466 15.778 7.466 15.778C4.68 15.712 3.664 13.972 3.664 13.972C3.664 10.096 5.497 6.952 5.497 6.952Z" fill="#FCB321"/>
<path d="M13.308 12.771C14.019 12.771 14.598 12.171 14.598 11.431C14.598 10.696 14.022 10.096 13.308 10.096V10.099C12.6 10.099 12.02 10.697 12.018 11.437C12.018 12.171 12.597 12.771 13.308 12.771Z" fill="#FCB321"/>
<path d="M8.69 12.771C9.401 12.771 9.98 12.171 9.98 11.431C9.98 10.696 9.405 10.096 8.694 10.096L8.69 10.099C7.979 10.099 7.4 10.697 7.4 11.437C7.4 12.171 7.979 12.771 8.69 12.771Z" fill="#FCB321"/>
</svg>
