<svg width="25" height="25" viewBox="0 0 25 25" fill="none" xmlns="http://www.w3.org/2000/svg">
<path d="M24.439 7.35009C24.3828 6.02174 24.1765 5.10851 23.881 4.31719C23.5762 3.47721 23.1073 2.72519 22.4929 2.10003C21.8927 1.46513 21.1658 0.971796 20.3686 0.65931C19.6044 0.351594 18.7321 0.136784 17.4567 0.0782168C16.1717 0.0146895 15.7638 0 12.5047 0C9.24559 0 8.83766 0.0146895 7.55743 0.0732567C6.28197 0.131824 5.40511 0.346825 4.64547 0.65435C3.83876 0.971796 3.11668 1.46017 2.51641 2.10003C1.9068 2.72519 1.43329 3.48217 1.13306 4.31242C0.837595 5.10851 0.631338 6.01678 0.575102 7.34513C0.514105 8.6834 0.5 9.10825 0.5 12.5025C0.5 15.8967 0.514105 16.3216 0.57034 17.6549C0.626575 18.9832 0.833015 19.8964 1.12848 20.6878C1.43329 21.5277 1.9068 22.2798 2.51641 22.9049C3.11668 23.5398 3.84353 24.0332 4.64071 24.3456C5.40511 24.6534 6.27721 24.8682 7.55285 24.9267C8.83289 24.9855 9.24101 25 12.5001 25C15.7592 25 16.1671 24.9855 17.4473 24.9267C18.7228 24.8682 19.5997 24.6534 20.3593 24.3456C21.9725 23.6961 23.248 22.3677 23.8717 20.6878C24.167 19.8917 24.3734 18.9832 24.4297 17.6549C24.4859 16.3216 24.5 15.8967 24.5 12.5025C24.5 9.10825 24.4952 8.6834 24.439 7.35009ZM22.2773 17.5572C22.2257 18.7781 22.0288 19.4374 21.8646 19.877C21.4613 20.9661 20.6313 21.8305 19.5856 22.2506C19.1635 22.4215 18.5259 22.6266 17.3581 22.6802C16.092 22.739 15.7123 22.7535 12.5094 22.7535C9.30659 22.7535 8.9221 22.739 7.66056 22.6802C6.48823 22.6266 5.85517 22.4215 5.43313 22.2506C4.91273 22.0503 4.43903 21.7328 4.05454 21.3177C3.65595 20.9123 3.35115 20.4239 3.15881 19.8819C2.99468 19.4424 2.79777 18.7781 2.7463 17.5622C2.68988 16.2435 2.67596 15.8479 2.67596 12.5122C2.67596 9.17655 2.68988 8.77612 2.7463 7.46246C2.79777 6.24151 2.99468 5.5822 3.15881 5.14266C3.35115 4.60048 3.65595 4.10734 4.05931 3.70671C4.44837 3.29159 4.91731 2.97415 5.4379 2.77403C5.85993 2.60309 6.49776 2.39801 7.66533 2.34421C8.93144 2.28565 9.31135 2.27096 12.514 2.27096C15.7216 2.27096 16.1013 2.28565 17.3629 2.34421C18.5352 2.39801 19.1683 2.60309 19.5903 2.77403C20.1107 2.97415 20.5844 3.29159 20.9689 3.70671C21.3675 4.11211 21.6723 4.60048 21.8646 5.14266C22.0288 5.5822 22.2257 6.24628 22.2773 7.46246C22.3336 8.78108 22.3477 9.17655 22.3477 12.5122C22.3477 15.8479 22.3336 16.2386 22.2773 17.5572Z" fill="#FCB321"/>
<path d="M12.5047 6.08031C9.10033 6.08031 6.33821 8.95678 6.33821 12.5025C6.33821 16.0482 9.10033 18.9247 12.5047 18.9247C15.9092 18.9247 18.6711 16.0482 18.6711 12.5025C18.6711 8.95678 15.9092 6.08031 12.5047 6.08031ZM12.5047 16.6684C10.2961 16.6684 8.50464 14.8028 8.50464 12.5025C8.50464 10.2021 10.2961 8.33658 12.5047 8.33658C14.7134 8.33658 16.5047 10.2021 16.5047 12.5025C16.5047 14.8028 14.7134 16.6684 12.5047 16.6684Z" fill="#FCB321"/>
<path d="M20.3547 5.82639C20.3547 6.65434 19.7101 7.32567 18.9149 7.32567C18.12 7.32567 17.4754 6.65434 17.4754 5.82639C17.4754 4.99824 18.12 4.32711 18.9149 4.32711C19.7101 4.32711 20.3547 4.99824 20.3547 5.82639Z" fill="#FCB321"/>
</svg>
