<svg width="22" height="16" viewBox="0 0 22 16" fill="none" xmlns="http://www.w3.org/2000/svg">
<path d="M19.3995 15.0357C19.7058 15.4508 20.2905 15.5389 20.7056 15.2326C21.1206 14.9262 21.2087 14.3415 20.9024 13.9265L19.3995 15.0357ZM10.5 1.40564L11.2514 0.851004C11.0723 0.608278 10.7869 0.467037 10.4853 0.471794C10.1836 0.47655 9.90284 0.626717 9.73143 0.874971L10.5 1.40564ZM0.703125 13.9504C0.410045 14.3749 0.51655 14.9566 0.941011 15.2497C1.36547 15.5427 1.94715 15.4362 2.24023 15.0118L0.703125 13.9504ZM20.9024 13.9265L11.2514 0.851004L9.74854 1.96028L19.3995 15.0357L20.9024 13.9265ZM9.73143 0.874971L0.703125 13.9504L2.24023 15.0118L11.2685 1.93631L9.73143 0.874971Z" fill="#FCB321"/>
</svg>
